<svg xmlns="http://www.w3.org/2000/svg" xmlns:xlink="http://www.w3.org/1999/xlink" xmlns:fi="http://pattern.flaticon.com/" x="0" y="0" width="1440" height="417" viewBox="0 0 1440 417"><rect x="0px" y="0px" width="100%" height="100%" opacity="1" fill="#090938"/><defs><circle cx="256" cy="256" r="256" transform="matrix(0.0027621371876271573 0.024859223002379232 -0.024859223002379232 0.0027621371876271573 143.65685396857654 93.92893179135837)" fill="#fc3291" id="L1_7"/><circle cx="256" cy="256" r="256" transform="matrix(0.0415240079164505 0 0 0.0415240079164505 52.36985397338867 118.36985397338867)" fill="#ec4a81"/><circle cx="256" cy="256" r="256" transform="matrix(0.0415240079164505 0 0 0.0415240079164505 52.36985397338867 118.36985397338867)" fill="#ec4a81"/><circle cx="256" cy="256" r="256" transform="matrix(0.0415240079164505 0 0 0.0415240079164505 52.36985397338867 118.36985397338867)" fill="#fc3291"/><circle cx="256" cy="256" r="256" transform="matrix(0.04419417327831713 -0.024859222683169244 0.024859222683169244 0.04419417327831713 -1.6776693661405133 61.05025264764214)" fill="#fc3291" id="L1_9"/><circle cx="256" cy="256" r="256" transform="matrix(0.06076698750257492 0 0 0.06076698750257492 248.44365119934082 -12.55634880065918)" fill="#fc3291" id="L1_10"/><circle cx="256" cy="256" r="256" transform="matrix(0.09702923893928528 0 0 0.09702923893928528 147.16051483154297 182.16051483154297)" fill="#fc3291" id="L1_11"/><circle cx="256" cy="256" r="256" transform="matrix(0.02485922178004721 -0.033145631101917164 0.033145631101917164 0.02485922178004721 299.15075766221713 174.1213207863987)" id="L1_12" fill="#fc3291"/><circle cx="256" cy="256" r="256" transform="matrix(0.14639320600210945 0.08010194329220102 -0.08010194329220102 0.14639320600210945 -6.970563253736557 183.01724178065652)" id="L1_13" fill="#fc3291"/><circle cx="256" cy="256" r="256" transform="matrix(0.05248058309209804 0.019334951464217435 -0.019334951464217435 0.05248058309209804 101.51471830326257 -15.384776846416763)" id="L1_14" fill="#fc3291"/></defs><g fi:class="KUsePattern"><pattern id="pattern_L1_7" width="350" height="350" patternUnits="userSpaceOnUse"><use xlink:href="#L1_7" x="-350" y="-350"/><use xlink:href="#L1_7" x="0" y="-350"/><use xlink:href="#L1_7" x="350" y="-350"/><use xlink:href="#L1_7" x="-350" y="0"/><use xlink:href="#L1_7" x="0" y="0"/><use xlink:href="#L1_7" x="350" y="0"/><use xlink:href="#L1_7" x="-350" y="350"/><use xlink:href="#L1_7" x="0" y="350"/><use xlink:href="#L1_7" x="350" y="350"/></pattern><rect x="0" y="0" width="100%" height="100%" fill="url(#pattern_L1_7)"/></g><g fi:class="KUsePattern" transform="matrix(1 0 0 1 20 20)" opacity="1"><pattern id="pattern_UNKNOWN" width="350" height="350" patternUnits="userSpaceOnUse"><use xlink:href="#UNKNOWN" x="-350" y="-350"/><use xlink:href="#UNKNOWN" x="0" y="-350"/><use xlink:href="#UNKNOWN" x="350" y="-350"/><use xlink:href="#UNKNOWN" x="-350" y="0"/><use xlink:href="#UNKNOWN" x="0" y="0"/><use xlink:href="#UNKNOWN" x="350" y="0"/><use xlink:href="#UNKNOWN" x="-350" y="350"/><use xlink:href="#UNKNOWN" x="0" y="350"/><use xlink:href="#UNKNOWN" x="350" y="350"/></pattern><rect x="0" y="0" width="100%" height="100%" fill="url(#pattern_UNKNOWN)"/></g><g fi:class="KUsePattern" transform="matrix(1 0 0 1 20 20)" opacity="1"><pattern id="pattern_UNKNOWN" width="350" height="350" patternUnits="userSpaceOnUse"><use xlink:href="#UNKNOWN" x="-350" y="-350"/><use xlink:href="#UNKNOWN" x="0" y="-350"/><use xlink:href="#UNKNOWN" x="350" y="-350"/><use xlink:href="#UNKNOWN" x="-350" y="0"/><use xlink:href="#UNKNOWN" x="0" y="0"/><use xlink:href="#UNKNOWN" x="350" y="0"/><use xlink:href="#UNKNOWN" x="-350" y="350"/><use xlink:href="#UNKNOWN" x="0" y="350"/><use xlink:href="#UNKNOWN" x="350" y="350"/></pattern><rect x="0" y="0" width="100%" height="100%" fill="url(#pattern_UNKNOWN)"/></g><g fi:class="KUsePattern" transform="matrix(1 0 0 1 20 20)" opacity="1"><pattern id="pattern_UNKNOWN" width="350" height="350" patternUnits="userSpaceOnUse"><use xlink:href="#UNKNOWN" x="-350" y="-350"/><use xlink:href="#UNKNOWN" x="0" y="-350"/><use xlink:href="#UNKNOWN" x="350" y="-350"/><use xlink:href="#UNKNOWN" x="-350" y="0"/><use xlink:href="#UNKNOWN" x="0" y="0"/><use xlink:href="#UNKNOWN" x="350" y="0"/><use xlink:href="#UNKNOWN" x="-350" y="350"/><use xlink:href="#UNKNOWN" x="0" y="350"/><use xlink:href="#UNKNOWN" x="350" y="350"/></pattern><rect x="0" y="0" width="100%" height="100%" fill="url(#pattern_UNKNOWN)"/></g><g fi:class="KUsePattern"><pattern id="pattern_L1_9" width="350" height="350" patternUnits="userSpaceOnUse"><use xlink:href="#L1_9" x="-350" y="-350"/><use xlink:href="#L1_9" x="0" y="-350"/><use xlink:href="#L1_9" x="350" y="-350"/><use xlink:href="#L1_9" x="-350" y="0"/><use xlink:href="#L1_9" x="0" y="0"/><use xlink:href="#L1_9" x="350" y="0"/><use xlink:href="#L1_9" x="-350" y="350"/><use xlink:href="#L1_9" x="0" y="350"/><use xlink:href="#L1_9" x="350" y="350"/></pattern><rect x="0" y="0" width="100%" height="100%" fill="url(#pattern_L1_9)"/></g><g fi:class="KUsePattern"><pattern id="pattern_L1_10" width="350" height="350" patternUnits="userSpaceOnUse"><use xlink:href="#L1_10" x="-350" y="-350"/><use xlink:href="#L1_10" x="0" y="-350"/><use xlink:href="#L1_10" x="350" y="-350"/><use xlink:href="#L1_10" x="-350" y="0"/><use xlink:href="#L1_10" x="0" y="0"/><use xlink:href="#L1_10" x="350" y="0"/><use xlink:href="#L1_10" x="-350" y="350"/><use xlink:href="#L1_10" x="0" y="350"/><use xlink:href="#L1_10" x="350" y="350"/></pattern><rect x="0" y="0" width="100%" height="100%" fill="url(#pattern_L1_10)"/></g><g fi:class="KUsePattern"><pattern id="pattern_L1_11" width="350" height="350" patternUnits="userSpaceOnUse"><use xlink:href="#L1_11" x="-350" y="-350"/><use xlink:href="#L1_11" x="0" y="-350"/><use xlink:href="#L1_11" x="350" y="-350"/><use xlink:href="#L1_11" x="-350" y="0"/><use xlink:href="#L1_11" x="0" y="0"/><use xlink:href="#L1_11" x="350" y="0"/><use xlink:href="#L1_11" x="-350" y="350"/><use xlink:href="#L1_11" x="0" y="350"/><use xlink:href="#L1_11" x="350" y="350"/></pattern><rect x="0" y="0" width="100%" height="100%" fill="url(#pattern_L1_11)"/></g><g fi:class="KUsePattern"><pattern id="pattern_L1_12" width="350" height="350" patternUnits="userSpaceOnUse"><use xlink:href="#L1_12" x="-350" y="-350"/><use xlink:href="#L1_12" x="0" y="-350"/><use xlink:href="#L1_12" x="350" y="-350"/><use xlink:href="#L1_12" x="-350" y="0"/><use xlink:href="#L1_12" x="0" y="0"/><use xlink:href="#L1_12" x="350" y="0"/><use xlink:href="#L1_12" x="-350" y="350"/><use xlink:href="#L1_12" x="0" y="350"/><use xlink:href="#L1_12" x="350" y="350"/></pattern><rect x="0" y="0" width="100%" height="100%" fill="url(#pattern_L1_12)"/></g><g fi:class="KUsePattern"><pattern id="pattern_L1_13" width="350" height="350" patternUnits="userSpaceOnUse"><use xlink:href="#L1_13" x="-350" y="-350"/><use xlink:href="#L1_13" x="0" y="-350"/><use xlink:href="#L1_13" x="350" y="-350"/><use xlink:href="#L1_13" x="-350" y="0"/><use xlink:href="#L1_13" x="0" y="0"/><use xlink:href="#L1_13" x="350" y="0"/><use xlink:href="#L1_13" x="-350" y="350"/><use xlink:href="#L1_13" x="0" y="350"/><use xlink:href="#L1_13" x="350" y="350"/></pattern><rect x="0" y="0" width="100%" height="100%" fill="url(#pattern_L1_13)"/></g><g fi:class="KUsePattern"><pattern id="pattern_L1_14" width="350" height="350" patternUnits="userSpaceOnUse"><use xlink:href="#L1_14" x="-350" y="-350"/><use xlink:href="#L1_14" x="0" y="-350"/><use xlink:href="#L1_14" x="350" y="-350"/><use xlink:href="#L1_14" x="-350" y="0"/><use xlink:href="#L1_14" x="0" y="0"/><use xlink:href="#L1_14" x="350" y="0"/><use xlink:href="#L1_14" x="-350" y="350"/><use xlink:href="#L1_14" x="0" y="350"/><use xlink:href="#L1_14" x="350" y="350"/></pattern><rect x="0" y="0" width="100%" height="100%" fill="url(#pattern_L1_14)"/></g></svg>