<svg xlink="http://www.w3.org/1999/xlink" viewBox="0 0 5000 5000" xmlns="http://www.w3.org/2000/svg" style="transform: scale(1);"><defs><filter id="goo"><feGaussianBlur in="SourceGraphic" stdDeviation="0" result="blur"></feGaussianBlur><feColorMatrix in="blur" type="matrix" values="1 0 0 0 0 0 1 0 0 0 0 0 1 0 0 0 0 0 19 -9" result="good"></feColorMatrix><feComposite in="SourceGraphic" in2="goo" operator="atop"></feComposite></filter><path d="M158,123C225,172 250,193 283,147C280,203 302,201 374,192C314,225 325,225 404,221C331,250 321,264 378,310C304,301 302,344 288,450C223,356 190,323 91,325C160,267 222,248 199,237C226,237 190,194 158,123z" id="P0"></path><path d="M324,319C273,298 253,298 227,338C230,292 230,278 204,299C219,267 212,257 178,241C214,238 180,212 137,144C207,182 215,143 250,34C285,142 275,216 315,203C286,230 297,231 345,219C303,253 298,273 324,319z" id="P1"></path><path d="M339,299C292,280 296,294 323,351C281,306 291,353 291,463C243,363 224,331 154,383C170,288 164,245 110,173C189,193 204,178 199,94C245,165 256,220 278,199C271,228 306,214 369,203C317,246 301,263 339,299z" id="P2"></path><path d="M234,380C229,314 206,330 137,387C164,291 152,250 80,183C166,211 152,196 55,143C180,154 241,202 273,161C270,207 322,151 433,99C366,204 304,247 348,282C298,272 335,304 394,385C300,341 263,318 234,380z" id="P3"></path><path d="M142,135C203,185 198,155 172,53C243,139 261,206 292,174C283,219 349,203 457,224C358,264 277,261 297,280C271,270 276,286 282,331C256,295 244,296 217,334C220,286 140,320 9,312C119,233 177,210 142,135z" id="P4"></path><path d="M214,307C223,272 179,278 105,259C176,241 160,221 89,161C184,180 220,187 242,118C263,183 272,204 317,179C289,218 299,219 355,208C309,246 288,260 313,290C272,284 259,325 215,387C224,317 234,280 214,307z" id="P5"></path><path d="M338,410C279,340 257,303 250,354C226,300 186,303 99,289C171,260 193,250 139,236C199,218 194,162 214,59C244,151 258,125 296,9C296,133 301,169 386,123C345,219 377,266 443,390C339,333 309,322 338,410z" id="P6"></path></defs><rect id="RECT" width="5000" height="5000" fill="#1A1A2B"></rect><g id="group" fill="#D90368" filter="" opacity="0.95"><use x="-85" y="-111" href="#P0"></use><use x="-169" y="75" href="#P5"></use><use x="-193" y="275" href="#P2"></use><use x="-131" y="407" href="#P2"></use><use x="-120" y="665" href="#P4"></use><use x="-118" y="784" href="#P1"></use><use x="-222" y="876" href="#P5"></use><use x="-248" y="1100" href="#P0"></use><use x="-248" y="1237" href="#P3"></use><use x="-80" y="1571" href="#P5"></use><use x="-154" y="1736" href="#P0"></use><use x="-136" y="1916" href="#P6"></use><use x="-212" y="2015" href="#P6"></use><use x="-131" y="2194" href="#P4"></use><use x="-92" y="2470" href="#P2"></use><use x="-189" y="2578" href="#P0"></use><use x="-114" y="2721" href="#P2"></use><use x="-149" y="2986" href="#P0"></use><use x="-192" y="3104" href="#P3"></use><use x="-225" y="3352" href="#P2"></use><use x="-232" y="3420" href="#P3"></use><use x="-102" y="3715" href="#P2"></use><use x="-184" y="3848" href="#P4"></use><use x="-167" y="4005" href="#P6"></use><use x="-76" y="4226" href="#P0"></use><use x="-205" y="4369" href="#P6"></use><use x="-239" y="4637" href="#P4"></use><use x="-169" y="4760" href="#P0"></use><use x="-143" y="4897" href="#P3"></use><use x="-200" y="5222" href="#P3"></use><use x="27" y="-184" href="#P4"></use><use x="111" y="55" href="#P5"></use><use x="-61" y="263" href="#P4"></use><use x="-25" y="435" href="#P3"></use><use x="57" y="568" href="#P2"></use><use x="-39" y="846" href="#P0"></use><use x="112" y="1014" href="#P0"></use><use x="-40" y="1038" href="#P3"></use><use x="83" y="1255" href="#P0"></use><use x="-20" y="1559" href="#P4"></use><use x="30" y="1688" href="#P4"></use><use x="-27" y="1783" href="#P2"></use><use x="75" y="1985" href="#P0"></use><use x="-29" y="2281" href="#P4"></use><use x="86" y="2464" href="#P2"></use><use x="-66" y="2608" href="#P0"></use><use x="16" y="2861" href="#P1"></use><use x="86" y="3050" href="#P6"></use><use x="68" y="3233" href="#P0"></use><use x="96" y="3337" href="#P3"></use><use x="-58" y="3525" href="#P5"></use><use x="-34" y="3683" href="#P2"></use><use x="3" y="3915" href="#P4"></use><use x="-53" y="4143" href="#P1"></use><use x="-13" y="4309" href="#P3"></use><use x="89" y="4426" href="#P3"></use><use x="1" y="4616" href="#P0"></use><use x="40" y="4802" href="#P5"></use><use x="21" y="4937" href="#P4"></use><use x="-21" y="5182" href="#P0"></use><use x="156" y="-116" href="#P0"></use><use x="217" y="97" href="#P3"></use><use x="246" y="252" href="#P4"></use><use x="215" y="399" href="#P2"></use><use x="117" y="566" href="#P5"></use><use x="144" y="670" href="#P6"></use><use x="157" y="1031" href="#P4"></use><use x="153" y="1153" href="#P3"></use><use x="188" y="1396" href="#P0"></use><use x="278" y="1459" href="#P4"></use><use x="155" y="1664" href="#P4"></use><use x="229" y="1826" href="#P3"></use><use x="222" y="2077" href="#P5"></use><use x="120" y="2189" href="#P3"></use><use x="282" y="2410" href="#P5"></use><use x="259" y="2664" href="#P3"></use><use x="233" y="2829" href="#P1"></use><use x="136" y="2951" href="#P6"></use><use x="134" y="3208" href="#P3"></use><use x="298" y="3406" href="#P4"></use><use x="259" y="3427" href="#P1"></use><use x="242" y="3779" href="#P2"></use><use x="127" y="3854" href="#P2"></use><use x="220" y="4136" href="#P6"></use><use x="203" y="4259" href="#P5"></use><use x="233" y="4439" href="#P2"></use><use x="295" y="4582" href="#P0"></use><use x="123" y="4812" href="#P2"></use><use x="182" y="4902" href="#P6"></use><use x="260" y="5186" href="#P0"></use><use x="364" y="-226" href="#P0"></use><use x="322" y="81" href="#P5"></use><use x="438" y="293" href="#P2"></use><use x="343" y="469" href="#P6"></use><use x="380" y="576" href="#P4"></use><use x="319" y="706" href="#P3"></use><use x="348" y="911" href="#P5"></use><use x="461" y="1049" href="#P0"></use><use x="362" y="1327" href="#P1"></use><use x="457" y="1431" href="#P6"></use><use x="462" y="1727" href="#P0"></use><use x="351" y="1829" href="#P2"></use><use x="315" y="2034" href="#P3"></use><use x="386" y="2236" href="#P1"></use><use x="334" y="2401" href="#P6"></use><use x="341" y="2655" href="#P0"></use><use x="466" y="2787" href="#P3"></use><use x="465" y="2875" href="#P5"></use><use x="483" y="3096" href="#P1"></use><use x="471" y="3364" href="#P6"></use><use x="452" y="3444" href="#P0"></use><use x="317" y="3613" href="#P6"></use><use x="415" y="3813" href="#P6"></use><use x="458" y="4031" href="#P0"></use><use x="479" y="4234" href="#P4"></use><use x="399" y="4459" href="#P4"></use><use x="456" y="4573" href="#P3"></use><use x="479" y="4855" href="#P4"></use><use x="338" y="4905" href="#P6"></use><use x="449" y="5127" href="#P4"></use><use x="534" y="-98" href="#P4"></use><use x="570" y="-57" href="#P0"></use><use x="534" y="191" href="#P3"></use><use x="514" y="472" href="#P1"></use><use x="522" y="608" href="#P0"></use><use x="526" y="700" href="#P5"></use><use x="595" y="891" href="#P0"></use><use x="517" y="1199" href="#P2"></use><use x="617" y="1398" href="#P4"></use><use x="659" y="1429" href="#P3"></use><use x="657" y="1754" href="#P5"></use><use x="562" y="1931" href="#P6"></use><use x="508" y="2061" href="#P4"></use><use x="614" y="2194" href="#P6"></use><use x="608" y="2382" href="#P6"></use><use x="529" y="2672" href="#P6"></use><use x="663" y="2827" href="#P6"></use><use x="504" y="2878" href="#P4"></use><use x="551" y="3123" href="#P5"></use><use x="639" y="3330" href="#P4"></use><use x="629" y="3599" href="#P5"></use><use x="490" y="3672" href="#P4"></use><use x="484" y="3871" href="#P1"></use><use x="663" y="4046" href="#P1"></use><use x="488" y="4177" href="#P4"></use><use x="515" y="4476" href="#P2"></use><use x="580" y="4619" href="#P3"></use><use x="543" y="4706" href="#P1"></use><use x="573" y="5053" href="#P1"></use><use x="590" y="5136" href="#P0"></use><use x="849" y="-84" href="#P4"></use><use x="829" y="100" href="#P1"></use><use x="693" y="278" href="#P0"></use><use x="780" y="440" href="#P4"></use><use x="727" y="596" href="#P1"></use><use x="834" y="800" href="#P5"></use><use x="726" y="879" href="#P5"></use><use x="767" y="1057" href="#P4"></use><use x="688" y="1325" href="#P0"></use><use x="696" y="1438" href="#P0"></use><use x="698" y="1607" href="#P1"></use><use x="735" y="1903" href="#P3"></use><use x="684" y="2104" href="#P2"></use><use x="714" y="2151" href="#P6"></use><use x="755" y="2429" href="#P6"></use><use x="697" y="2681" href="#P0"></use><use x="783" y="2701" href="#P3"></use><use x="680" y="2991" href="#P5"></use><use x="680" y="3112" href="#P3"></use><use x="844" y="3392" href="#P5"></use><use x="716" y="3516" href="#P4"></use><use x="801" y="3744" href="#P6"></use><use x="834" y="3875" href="#P1"></use><use x="721" y="4015" href="#P4"></use><use x="774" y="4286" href="#P0"></use><use x="719" y="4456" href="#P5"></use><use x="801" y="4564" href="#P6"></use><use x="703" y="4831" href="#P2"></use><use x="789" y="4932" href="#P5"></use><use x="759" y="5246" href="#P2"></use><use x="938" y="-91" href="#P6"></use><use x="977" y="-48" href="#P3"></use><use x="902" y="261" href="#P5"></use><use x="910" y="441" href="#P6"></use><use x="941" y="533" href="#P1"></use><use x="1026" y="689" href="#P0"></use><use x="1022" y="978" href="#P5"></use><use x="1025" y="1033" href="#P1"></use><use x="929" y="1258" href="#P3"></use><use x="971" y="1401" href="#P0"></use><use x="965" y="1646" href="#P2"></use><use x="902" y="1840" href="#P1"></use><use x="933" y="2035" href="#P5"></use><use x="1011" y="2232" href="#P3"></use><use x="934" y="2487" href="#P5"></use><use x="1024" y="2622" href="#P4"></use><use x="919" y="2821" href="#P5"></use><use x="1030" y="3044" href="#P3"></use><use x="1029" y="3107" href="#P5"></use><use x="1024" y="3316" href="#P6"></use><use x="874" y="3480" href="#P4"></use><use x="1012" y="3752" href="#P5"></use><use x="980" y="3941" href="#P1"></use><use x="1026" y="3975" href="#P2"></use><use x="922" y="4188" href="#P6"></use><use x="855" y="4440" href="#P2"></use><use x="899" y="4545" href="#P6"></use><use x="955" y="4798" href="#P6"></use><use x="988" y="5005" href="#P2"></use><use x="975" y="5193" href="#P6"></use><use x="1145" y="-118" href="#P6"></use><use x="1138" y="25" href="#P2"></use><use x="1073" y="238" href="#P2"></use><use x="1157" y="481" href="#P2"></use><use x="1115" y="667" href="#P2"></use><use x="1095" y="762" href="#P2"></use><use x="1052" y="883" href="#P6"></use><use x="1089" y="1099" href="#P0"></use><use x="1089" y="1250" href="#P6"></use><use x="1057" y="1530" href="#P3"></use><use x="1206" y="1683" href="#P2"></use><use x="1165" y="1950" href="#P6"></use><use x="1135" y="1988" href="#P4"></use><use x="1212" y="2213" href="#P2"></use><use x="1044" y="2416" href="#P6"></use><use x="1079" y="2626" href="#P6"></use><use x="1179" y="2729" href="#P4"></use><use x="1173" y="2906" href="#P0"></use><use x="1076" y="3085" href="#P5"></use><use x="1158" y="3293" href="#P5"></use><use x="1133" y="3537" href="#P2"></use><use x="1105" y="3705" href="#P4"></use><use x="1129" y="3906" href="#P1"></use><use x="1065" y="4052" href="#P3"></use><use x="1179" y="4318" href="#P2"></use><use x="1195" y="4407" href="#P0"></use><use x="1059" y="4519" href="#P2"></use><use x="1144" y="4764" href="#P5"></use><use x="1079" y="4897" href="#P6"></use><use x="1133" y="5231" href="#P3"></use><use x="1242" y="-166" href="#P0"></use><use x="1246" y="-39" href="#P0"></use><use x="1336" y="223" href="#P4"></use><use x="1385" y="479" href="#P4"></use><use x="1344" y="555" href="#P6"></use><use x="1234" y="773" href="#P5"></use><use x="1288" y="983" href="#P1"></use><use x="1338" y="1173" href="#P1"></use><use x="1298" y="1396" href="#P1"></use><use x="1317" y="1462" href="#P3"></use><use x="1370" y="1627" href="#P5"></use><use x="1343" y="1880" href="#P5"></use><use x="1350" y="2132" href="#P1"></use><use x="1364" y="2165" href="#P5"></use><use x="1295" y="2366" href="#P3"></use><use x="1327" y="2599" href="#P4"></use><use x="1335" y="2752" href="#P4"></use><use x="1266" y="3001" href="#P4"></use><use x="1243" y="3095" href="#P0"></use><use x="1218" y="3379" href="#P1"></use><use x="1291" y="3553" href="#P1"></use><use x="1373" y="3620" href="#P0"></use><use x="1288" y="3879" href="#P6"></use><use x="1293" y="4025" href="#P3"></use><use x="1263" y="4225" href="#P5"></use><use x="1253" y="4451" href="#P0"></use><use x="1253" y="4643" href="#P6"></use><use x="1269" y="4764" href="#P6"></use><use x="1295" y="4999" href="#P2"></use><use x="1388" y="5158" href="#P5"></use><use x="1421" y="-110" href="#P2"></use><use x="1501" y="28" href="#P4"></use><use x="1441" y="201" href="#P4"></use><use x="1500" y="424" href="#P2"></use><use x="1535" y="575" href="#P5"></use><use x="1447" y="793" href="#P2"></use><use x="1562" y="931" href="#P4"></use><use x="1552" y="1069" href="#P3"></use><use x="1518" y="1263" href="#P0"></use><use x="1403" y="1402" href="#P3"></use><use x="1439" y="1630" href="#P5"></use><use x="1465" y="1797" href="#P1"></use><use x="1412" y="1994" href="#P5"></use><use x="1514" y="2167" href="#P5"></use><use x="1568" y="2326" href="#P4"></use><use x="1515" y="2589" href="#P6"></use><use x="1466" y="2711" href="#P6"></use><use x="1580" y="2979" href="#P5"></use><use x="1500" y="3178" href="#P6"></use><use x="1489" y="3301" href="#P6"></use><use x="1466" y="3557" href="#P5"></use><use x="1548" y="3636" href="#P5"></use><use x="1508" y="3915" href="#P3"></use><use x="1503" y="3990" href="#P3"></use><use x="1537" y="4284" href="#P6"></use><use x="1514" y="4407" href="#P1"></use><use x="1442" y="4609" href="#P4"></use><use x="1470" y="4731" href="#P3"></use><use x="1404" y="4996" href="#P4"></use><use x="1408" y="5127" href="#P1"></use><use x="1725" y="-249" href="#P3"></use><use x="1701" y="-61" href="#P5"></use><use x="1662" y="192" href="#P3"></use><use x="1762" y="381" href="#P5"></use><use x="1724" y="565" href="#P2"></use><use x="1759" y="701" href="#P3"></use><use x="1672" y="981" href="#P3"></use><use x="1601" y="1036" href="#P3"></use><use x="1745" y="1348" href="#P0"></use><use x="1700" y="1427" href="#P6"></use><use x="1640" y="1629" href="#P0"></use><use x="1644" y="1877" href="#P0"></use><use x="1646" y="2132" href="#P4"></use><use x="1734" y="2206" href="#P4"></use><use x="1698" y="2408" href="#P0"></use><use x="1701" y="2611" href="#P2"></use><use x="1611" y="2814" href="#P2"></use><use x="1706" y="2914" href="#P0"></use><use x="1680" y="3052" href="#P0"></use><use x="1636" y="3340" href="#P3"></use><use x="1711" y="3467" href="#P4"></use><use x="1764" y="3625" href="#P6"></use><use x="1723" y="3952" href="#P4"></use><use x="1708" y="4001" href="#P2"></use><use x="1715" y="4263" href="#P4"></use><use x="1599" y="4485" href="#P2"></use><use x="1678" y="4568" href="#P0"></use><use x="1711" y="4804" href="#P0"></use><use x="1695" y="4911" href="#P0"></use><use x="1767" y="5152" href="#P1"></use><use x="1858" y="-143" href="#P2"></use><use x="1937" y="43" href="#P5"></use><use x="1858" y="194" href="#P0"></use><use x="1784" y="407" href="#P3"></use><use x="1855" y="497" href="#P4"></use><use x="1915" y="705" href="#P1"></use><use x="1906" y="867" href="#P2"></use><use x="1876" y="1099" href="#P3"></use><use x="1863" y="1361" href="#P5"></use><use x="1781" y="1526" href="#P1"></use><use x="1911" y="1727" href="#P2"></use><use x="1909" y="1821" href="#P2"></use><use x="1786" y="2074" href="#P5"></use><use x="1768" y="2297" href="#P5"></use><use x="1803" y="2432" href="#P0"></use><use x="1870" y="2583" href="#P2"></use><use x="1948" y="2774" href="#P0"></use><use x="1828" y="3028" href="#P6"></use><use x="1838" y="3193" href="#P5"></use><use x="1783" y="3250" href="#P5"></use><use x="1812" y="3575" href="#P5"></use><use x="1794" y="3602" href="#P0"></use><use x="1881" y="3913" href="#P2"></use><use x="1868" y="4121" href="#P4"></use><use x="1922" y="4188" href="#P6"></use><use x="1893" y="4508" href="#P5"></use><use x="1870" y="4591" href="#P3"></use><use x="1770" y="4851" href="#P2"></use><use x="1905" y="5010" href="#P5"></use><use x="1936" y="5154" href="#P1"></use><use x="2012" y="-69" href="#P0"></use><use x="2055" y="38" href="#P4"></use><use x="1965" y="189" href="#P4"></use><use x="2008" y="444" href="#P4"></use><use x="1990" y="654" href="#P2"></use><use x="2057" y="683" href="#P3"></use><use x="2010" y="971" href="#P2"></use><use x="2055" y="1067" href="#P0"></use><use x="2098" y="1373" href="#P5"></use><use x="2049" y="1475" href="#P2"></use><use x="2114" y="1709" href="#P1"></use><use x="1968" y="1904" href="#P2"></use><use x="1963" y="2126" href="#P0"></use><use x="1954" y="2298" href="#P2"></use><use x="2133" y="2396" href="#P2"></use><use x="1953" y="2654" href="#P1"></use><use x="2101" y="2690" href="#P3"></use><use x="2120" y="2966" href="#P2"></use><use x="2117" y="3086" href="#P4"></use><use x="1984" y="3241" href="#P1"></use><use x="2090" y="3422" href="#P4"></use><use x="2132" y="3680" href="#P3"></use><use x="2071" y="3912" href="#P4"></use><use x="2117" y="4030" href="#P2"></use><use x="2004" y="4193" href="#P4"></use><use x="2120" y="4422" href="#P2"></use><use x="2101" y="4612" href="#P2"></use><use x="2000" y="4744" href="#P3"></use><use x="1986" y="4910" href="#P1"></use><use x="1964" y="5080" href="#P1"></use><use x="2158" y="-128" href="#P6"></use><use x="2169" y="2" href="#P5"></use><use x="2186" y="189" href="#P6"></use><use x="2179" y="463" href="#P0"></use><use x="2222" y="518" href="#P5"></use><use x="2239" y="682" href="#P2"></use><use x="2187" y="953" href="#P5"></use><use x="2143" y="1121" href="#P1"></use><use x="2299" y="1292" href="#P3"></use><use x="2249" y="1515" href="#P4"></use><use x="2185" y="1673" href="#P2"></use><use x="2209" y="1768" href="#P1"></use><use x="2212" y="2128" href="#P0"></use><use x="2170" y="2232" href="#P3"></use><use x="2221" y="2424" href="#P2"></use><use x="2296" y="2633" href="#P4"></use><use x="2284" y="2765" href="#P2"></use><use x="2312" y="3026" href="#P5"></use><use x="2231" y="3221" href="#P0"></use><use x="2203" y="3351" href="#P1"></use><use x="2296" y="3501" href="#P4"></use><use x="2162" y="3749" href="#P5"></use><use x="2170" y="3878" href="#P4"></use><use x="2201" y="4055" href="#P2"></use><use x="2314" y="4288" href="#P5"></use><use x="2276" y="4386" href="#P5"></use><use x="2232" y="4538" href="#P4"></use><use x="2295" y="4877" href="#P1"></use><use x="2161" y="5023" href="#P4"></use><use x="2184" y="5215" href="#P6"></use><use x="2487" y="-212" href="#P1"></use><use x="2400" y="45" href="#P4"></use><use x="2405" y="258" href="#P6"></use><use x="2443" y="469" href="#P0"></use><use x="2377" y="654" href="#P6"></use><use x="2415" y="772" href="#P0"></use><use x="2341" y="977" href="#P5"></use><use x="2387" y="1045" href="#P5"></use><use x="2413" y="1311" href="#P5"></use><use x="2454" y="1490" href="#P1"></use><use x="2362" y="1647" href="#P5"></use><use x="2423" y="1900" href="#P4"></use><use x="2427" y="2096" href="#P6"></use><use x="2424" y="2245" href="#P3"></use><use x="2392" y="2492" href="#P2"></use><use x="2347" y="2516" href="#P4"></use><use x="2383" y="2839" href="#P1"></use><use x="2396" y="3025" href="#P4"></use><use x="2375" y="3106" href="#P0"></use><use x="2410" y="3392" href="#P3"></use><use x="2370" y="3550" href="#P1"></use><use x="2444" y="3653" href="#P5"></use><use x="2443" y="3913" href="#P3"></use><use x="2420" y="4083" href="#P4"></use><use x="2489" y="4266" href="#P6"></use><use x="2394" y="4349" href="#P3"></use><use x="2346" y="4536" href="#P1"></use><use x="2386" y="4877" href="#P5"></use><use x="2485" y="5040" href="#P0"></use><use x="2454" y="5131" href="#P5"></use><use x="2662" y="-127" href="#P6"></use><use x="2580" y="20" href="#P4"></use><use x="2642" y="270" href="#P4"></use><use x="2613" y="477" href="#P2"></use><use x="2576" y="656" href="#P5"></use><use x="2680" y="794" href="#P2"></use><use x="2606" y="882" href="#P6"></use><use x="2567" y="1062" href="#P5"></use><use x="2552" y="1399" href="#P3"></use><use x="2518" y="1573" href="#P0"></use><use x="2645" y="1691" href="#P3"></use><use x="2545" y="1847" href="#P0"></use><use x="2642" y="1992" href="#P5"></use><use x="2519" y="2206" href="#P1"></use><use x="2682" y="2477" href="#P2"></use><use x="2682" y="2621" href="#P0"></use><use x="2599" y="2812" href="#P2"></use><use x="2500" y="2986" href="#P0"></use><use x="2639" y="3148" href="#P6"></use><use x="2622" y="3255" href="#P5"></use><use x="2668" y="3484" href="#P4"></use><use x="2616" y="3745" href="#P5"></use><use x="2641" y="3900" href="#P2"></use><use x="2582" y="4096" href="#P4"></use><use x="2588" y="4153" href="#P0"></use><use x="2548" y="4371" href="#P6"></use><use x="2657" y="4549" href="#P2"></use><use x="2511" y="4709" href="#P2"></use><use x="2608" y="5056" href="#P6"></use><use x="2539" y="5185" href="#P3"></use><use x="2738" y="-231" href="#P3"></use><use x="2745" y="114" href="#P3"></use><use x="2693" y="165" href="#P5"></use><use x="2721" y="481" href="#P5"></use><use x="2809" y="550" href="#P0"></use><use x="2731" y="795" href="#P5"></use><use x="2781" y="1004" href="#P6"></use><use x="2705" y="1139" href="#P3"></use><use x="2753" y="1281" href="#P1"></use><use x="2837" y="1404" href="#P0"></use><use x="2765" y="1681" href="#P5"></use><use x="2691" y="1947" href="#P4"></use><use x="2788" y="1958" href="#P3"></use><use x="2717" y="2232" href="#P5"></use><use x="2840" y="2342" href="#P0"></use><use x="2729" y="2558" href="#P3"></use><use x="2719" y="2773" href="#P3"></use><use x="2700" y="3047" href="#P4"></use><use x="2822" y="3200" href="#P6"></use><use x="2803" y="3234" href="#P6"></use><use x="2814" y="3482" href="#P6"></use><use x="2706" y="3697" href="#P6"></use><use x="2835" y="3822" href="#P6"></use><use x="2730" y="4049" href="#P0"></use><use x="2747" y="4238" href="#P6"></use><use x="2744" y="4347" href="#P2"></use><use x="2723" y="4678" href="#P2"></use><use x="2847" y="4755" href="#P0"></use><use x="2764" y="4998" href="#P3"></use><use x="2856" y="5131" href="#P4"></use><use x="2884" y="-234" href="#P1"></use><use x="2960" y="92" href="#P4"></use><use x="2957" y="133" href="#P6"></use><use x="2903" y="430" href="#P4"></use><use x="2894" y="545" href="#P2"></use><use x="3016" y="783" href="#P2"></use><use x="3037" y="954" href="#P5"></use><use x="2974" y="1185" href="#P6"></use><use x="3013" y="1375" href="#P2"></use><use x="3026" y="1581" href="#P4"></use><use x="2933" y="1691" href="#P0"></use><use x="3019" y="1826" href="#P5"></use><use x="3041" y="2041" href="#P3"></use><use x="3015" y="2254" href="#P1"></use><use x="2945" y="2388" href="#P6"></use><use x="2962" y="2516" href="#P4"></use><use x="2883" y="2839" href="#P5"></use><use x="3027" y="2902" href="#P5"></use><use x="3004" y="3090" href="#P1"></use><use x="2957" y="3245" href="#P2"></use><use x="2940" y="3560" href="#P0"></use><use x="3049" y="3699" href="#P5"></use><use x="3003" y="3785" href="#P6"></use><use x="3035" y="4013" href="#P6"></use><use x="3027" y="4263" href="#P1"></use><use x="2987" y="4478" href="#P5"></use><use x="2908" y="4611" href="#P6"></use><use x="2980" y="4714" href="#P5"></use><use x="3015" y="5005" href="#P0"></use><use x="2908" y="5152" href="#P0"></use><use x="3227" y="-165" href="#P4"></use><use x="3185" y="-33" href="#P1"></use><use x="3124" y="241" href="#P6"></use><use x="3188" y="469" href="#P2"></use><use x="3221" y="653" href="#P6"></use><use x="3123" y="792" href="#P3"></use><use x="3086" y="871" href="#P1"></use><use x="3124" y="1135" href="#P4"></use><use x="3116" y="1239" href="#P4"></use><use x="3164" y="1543" href="#P1"></use><use x="3221" y="1749" href="#P3"></use><use x="3148" y="1909" href="#P6"></use><use x="3187" y="2062" href="#P4"></use><use x="3061" y="2160" href="#P6"></use><use x="3135" y="2366" href="#P5"></use><use x="3145" y="2644" href="#P3"></use><use x="3131" y="2706" href="#P3"></use><use x="3069" y="2867" href="#P2"></use><use x="3093" y="3117" href="#P5"></use><use x="3186" y="3401" href="#P3"></use><use x="3229" y="3438" href="#P4"></use><use x="3124" y="3703" href="#P0"></use><use x="3059" y="3922" href="#P0"></use><use x="3088" y="4114" href="#P4"></use><use x="3068" y="4186" href="#P1"></use><use x="3058" y="4476" href="#P5"></use><use x="3062" y="4568" href="#P2"></use><use x="3120" y="4776" href="#P0"></use><use x="3146" y="4970" href="#P5"></use><use x="3207" y="5186" href="#P2"></use><use x="3417" y="-165" href="#P0"></use><use x="3377" y="60" href="#P2"></use><use x="3354" y="197" href="#P5"></use><use x="3314" y="326" href="#P5"></use><use x="3344" y="533" href="#P5"></use><use x="3381" y="689" href="#P2"></use><use x="3334" y="970" href="#P5"></use><use x="3393" y="1078" href="#P4"></use><use x="3374" y="1275" href="#P0"></use><use x="3257" y="1550" href="#P2"></use><use x="3290" y="1762" href="#P1"></use><use x="3260" y="1888" href="#P2"></use><use x="3304" y="2011" href="#P5"></use><use x="3370" y="2246" href="#P2"></use><use x="3257" y="2363" href="#P5"></use><use x="3392" y="2536" href="#P3"></use><use x="3417" y="2850" href="#P3"></use><use x="3253" y="2923" href="#P2"></use><use x="3274" y="3153" href="#P2"></use><use x="3261" y="3307" href="#P2"></use><use x="3246" y="3557" href="#P5"></use><use x="3309" y="3727" href="#P0"></use><use x="3289" y="3916" href="#P0"></use><use x="3278" y="4141" href="#P0"></use><use x="3352" y="4287" href="#P6"></use><use x="3389" y="4358" href="#P4"></use><use x="3393" y="4643" href="#P6"></use><use x="3387" y="4758" href="#P6"></use><use x="3393" y="4997" href="#P5"></use><use x="3351" y="5217" href="#P2"></use><use x="3491" y="-68" href="#P2"></use><use x="3462" y="111" href="#P2"></use><use x="3421" y="178" href="#P2"></use><use x="3432" y="326" href="#P6"></use><use x="3588" y="640" href="#P4"></use><use x="3432" y="680" href="#P2"></use><use x="3585" y="914" href="#P1"></use><use x="3566" y="1193" href="#P0"></use><use x="3504" y="1337" href="#P2"></use><use x="3425" y="1452" href="#P4"></use><use x="3578" y="1686" href="#P0"></use><use x="3520" y="1911" href="#P5"></use><use x="3577" y="2060" href="#P1"></use><use x="3501" y="2186" href="#P4"></use><use x="3534" y="2338" href="#P4"></use><use x="3556" y="2531" href="#P4"></use><use x="3541" y="2794" href="#P3"></use><use x="3448" y="2888" href="#P0"></use><use x="3516" y="3150" href="#P6"></use><use x="3595" y="3289" href="#P0"></use><use x="3464" y="3555" href="#P2"></use><use x="3595" y="3724" href="#P4"></use><use x="3537" y="3873" href="#P5"></use><use x="3493" y="4140" href="#P2"></use><use x="3599" y="4212" href="#P3"></use><use x="3441" y="4394" href="#P1"></use><use x="3480" y="4520" href="#P4"></use><use x="3587" y="4814" href="#P6"></use><use x="3550" y="5056" href="#P2"></use><use x="3463" y="5186" href="#P3"></use><use x="3659" y="-150" href="#P3"></use><use x="3757" y="-9" href="#P4"></use><use x="3670" y="164" href="#P0"></use><use x="3704" y="431" href="#P0"></use><use x="3699" y="526" href="#P2"></use><use x="3728" y="830" href="#P4"></use><use x="3709" y="925" href="#P3"></use><use x="3694" y="1135" href="#P2"></use><use x="3602" y="1355" href="#P4"></use><use x="3701" y="1480" href="#P4"></use><use x="3722" y="1630" href="#P4"></use><use x="3617" y="1878" href="#P2"></use><use x="3695" y="2092" href="#P0"></use><use x="3720" y="2172" href="#P4"></use><use x="3760" y="2483" href="#P3"></use><use x="3715" y="2668" href="#P0"></use><use x="3754" y="2867" href="#P4"></use><use x="3708" y="2927" href="#P4"></use><use x="3609" y="3073" href="#P6"></use><use x="3729" y="3294" href="#P4"></use><use x="3771" y="3423" href="#P3"></use><use x="3734" y="3665" href="#P2"></use><use x="3751" y="3930" href="#P1"></use><use x="3729" y="4034" href="#P4"></use><use x="3624" y="4328" href="#P6"></use><use x="3650" y="4464" href="#P5"></use><use x="3673" y="4673" href="#P3"></use><use x="3665" y="4818" href="#P1"></use><use x="3742" y="5047" href="#P1"></use><use x="3752" y="5222" href="#P2"></use><use x="3864" y="-152" href="#P5"></use><use x="3859" y="27" href="#P4"></use><use x="3933" y="165" href="#P0"></use><use x="3828" y="418" href="#P3"></use><use x="3942" y="485" href="#P5"></use><use x="3944" y="786" href="#P4"></use><use x="3827" y="965" href="#P2"></use><use x="3913" y="1050" href="#P0"></use><use x="3899" y="1342" href="#P0"></use><use x="3841" y="1505" href="#P3"></use><use x="3905" y="1702" href="#P1"></use><use x="3837" y="1783" href="#P5"></use><use x="3928" y="1983" href="#P0"></use><use x="3879" y="2141" href="#P5"></use><use x="3922" y="2348" href="#P2"></use><use x="3852" y="2570" href="#P4"></use><use x="3787" y="2770" href="#P5"></use><use x="3811" y="2904" href="#P6"></use><use x="3960" y="3202" href="#P3"></use><use x="3899" y="3320" href="#P4"></use><use x="3916" y="3451" href="#P6"></use><use x="3787" y="3652" href="#P5"></use><use x="3813" y="3852" href="#P3"></use><use x="3876" y="4011" href="#P1"></use><use x="3830" y="4266" href="#P6"></use><use x="3892" y="4334" href="#P6"></use><use x="3950" y="4688" href="#P2"></use><use x="3900" y="4721" href="#P5"></use><use x="3931" y="5048" href="#P3"></use><use x="3967" y="5069" href="#P0"></use><use x="3970" y="-108" href="#P4"></use><use x="4150" y="33" href="#P6"></use><use x="4042" y="217" href="#P3"></use><use x="4104" y="332" href="#P0"></use><use x="3987" y="568" href="#P2"></use><use x="4083" y="732" href="#P4"></use><use x="4053" y="946" href="#P5"></use><use x="4031" y="1152" href="#P1"></use><use x="4105" y="1348" href="#P3"></use><use x="4144" y="1564" href="#P5"></use><use x="4133" y="1613" href="#P5"></use><use x="4024" y="1914" href="#P1"></use><use x="4035" y="2095" href="#P5"></use><use x="4101" y="2289" href="#P6"></use><use x="4101" y="2462" href="#P2"></use><use x="4147" y="2659" href="#P2"></use><use x="4132" y="2788" href="#P6"></use><use x="4056" y="2919" href="#P6"></use><use x="3969" y="3147" href="#P2"></use><use x="4048" y="3354" href="#P3"></use><use x="4063" y="3458" href="#P1"></use><use x="3973" y="3731" href="#P1"></use><use x="4059" y="3787" href="#P3"></use><use x="3966" y="3979" href="#P3"></use><use x="4027" y="4322" href="#P2"></use><use x="4021" y="4489" href="#P0"></use><use x="4056" y="4521" href="#P5"></use><use x="4011" y="4723" href="#P3"></use><use x="3974" y="5047" href="#P5"></use><use x="4011" y="5238" href="#P0"></use><use x="4192" y="-180" href="#P4"></use><use x="4314" y="10" href="#P3"></use><use x="4212" y="252" href="#P2"></use><use x="4245" y="473" href="#P3"></use><use x="4262" y="590" href="#P6"></use><use x="4157" y="781" href="#P3"></use><use x="4219" y="889" href="#P5"></use><use x="4166" y="1108" href="#P3"></use><use x="4187" y="1288" href="#P4"></use><use x="4217" y="1442" href="#P6"></use><use x="4306" y="1688" href="#P0"></use><use x="4272" y="1768" href="#P2"></use><use x="4252" y="2117" href="#P1"></use><use x="4184" y="2136" href="#P1"></use><use x="4309" y="2415" href="#P1"></use><use x="4275" y="2555" href="#P2"></use><use x="4158" y="2728" href="#P6"></use><use x="4261" y="2904" href="#P1"></use><use x="4292" y="3129" href="#P1"></use><use x="4268" y="3306" href="#P2"></use><use x="4185" y="3481" href="#P4"></use><use x="4272" y="3759" href="#P1"></use><use x="4177" y="3870" href="#P1"></use><use x="4243" y="3999" href="#P3"></use><use x="4196" y="4295" href="#P2"></use><use x="4311" y="4444" href="#P1"></use><use x="4272" y="4693" href="#P6"></use><use x="4200" y="4835" href="#P5"></use><use x="4176" y="5058" href="#P1"></use><use x="4180" y="5170" href="#P3"></use><use x="4345" y="-93" href="#P6"></use><use x="4395" y="-67" href="#P4"></use><use x="4511" y="219" href="#P6"></use><use x="4374" y="391" href="#P4"></use><use x="4508" y="646" href="#P3"></use><use x="4379" y="688" href="#P0"></use><use x="4405" y="961" href="#P1"></use><use x="4422" y="1195" href="#P5"></use><use x="4419" y="1397" href="#P6"></use><use x="4383" y="1479" href="#P2"></use><use x="4481" y="1712" href="#P5"></use><use x="4378" y="1906" href="#P0"></use><use x="4453" y="2107" href="#P2"></use><use x="4467" y="2199" href="#P4"></use><use x="4496" y="2447" href="#P6"></use><use x="4474" y="2540" href="#P0"></use><use x="4365" y="2847" href="#P2"></use><use x="4362" y="2981" href="#P1"></use><use x="4398" y="3164" href="#P4"></use><use x="4468" y="3408" href="#P1"></use><use x="4479" y="3532" href="#P0"></use><use x="4506" y="3729" href="#P2"></use><use x="4426" y="3819" href="#P5"></use><use x="4428" y="4040" href="#P4"></use><use x="4411" y="4334" href="#P5"></use><use x="4375" y="4473" href="#P0"></use><use x="4453" y="4646" href="#P5"></use><use x="4407" y="4755" href="#P6"></use><use x="4387" y="4953" href="#P0"></use><use x="4435" y="5095" href="#P1"></use><use x="4666" y="-172" href="#P5"></use><use x="4643" y="15" href="#P2"></use><use x="4617" y="158" href="#P6"></use><use x="4622" y="382" href="#P3"></use><use x="4572" y="658" href="#P1"></use><use x="4648" y="738" href="#P1"></use><use x="4590" y="903" href="#P3"></use><use x="4540" y="1189" href="#P1"></use><use x="4637" y="1239" href="#P5"></use><use x="4682" y="1582" href="#P5"></use><use x="4555" y="1683" href="#P3"></use><use x="4657" y="1940" href="#P3"></use><use x="4558" y="2027" href="#P6"></use><use x="4552" y="2249" href="#P1"></use><use x="4627" y="2440" href="#P4"></use><use x="4549" y="2668" href="#P3"></use><use x="4623" y="2726" href="#P0"></use><use x="4695" y="2984" href="#P5"></use><use x="4577" y="3150" href="#P2"></use><use x="4571" y="3328" href="#P4"></use><use x="4639" y="3541" href="#P3"></use><use x="4631" y="3774" href="#P1"></use><use x="4542" y="3948" href="#P1"></use><use x="4567" y="4070" href="#P3"></use><use x="4647" y="4323" href="#P0"></use><use x="4523" y="4417" href="#P6"></use><use x="4531" y="4644" href="#P1"></use><use x="4596" y="4702" href="#P1"></use><use x="4626" y="4993" href="#P5"></use><use x="4528" y="5165" href="#P3"></use><use x="4855" y="-214" href="#P1"></use><use x="4783" y="7" href="#P2"></use><use x="4834" y="219" href="#P1"></use><use x="4858" y="482" href="#P0"></use><use x="4882" y="624" href="#P5"></use><use x="4763" y="724" href="#P5"></use><use x="4710" y="898" href="#P4"></use><use x="4764" y="1150" href="#P1"></use><use x="4709" y="1317" href="#P3"></use><use x="4791" y="1481" href="#P1"></use><use x="4720" y="1660" href="#P1"></use><use x="4719" y="1914" href="#P2"></use><use x="4775" y="2014" href="#P1"></use><use x="4760" y="2203" href="#P0"></use><use x="4868" y="2380" href="#P1"></use><use x="4823" y="2589" href="#P6"></use><use x="4765" y="2851" href="#P6"></use><use x="4821" y="3005" href="#P1"></use><use x="4846" y="3084" href="#P5"></use><use x="4742" y="3241" href="#P4"></use><use x="4817" y="3516" href="#P3"></use><use x="4802" y="3754" href="#P5"></use><use x="4804" y="3784" href="#P6"></use><use x="4759" y="4074" href="#P4"></use><use x="4738" y="4157" href="#P1"></use><use x="4728" y="4405" href="#P0"></use><use x="4822" y="4532" href="#P3"></use><use x="4808" y="4760" href="#P5"></use><use x="4784" y="4884" href="#P0"></use><use x="4773" y="5238" href="#P5"></use><use x="4945" y="-231" href="#P4"></use><use x="4955" y="-36" href="#P0"></use><use x="5028" y="268" href="#P0"></use><use x="4929" y="377" href="#P5"></use><use x="4987" y="589" href="#P6"></use><use x="4965" y="710" href="#P2"></use><use x="4890" y="1015" href="#P4"></use><use x="5033" y="1077" href="#P4"></use><use x="5036" y="1384" href="#P6"></use><use x="4993" y="1430" href="#P1"></use><use x="5060" y="1705" href="#P5"></use><use x="5047" y="1858" href="#P2"></use><use x="4921" y="2058" href="#P4"></use><use x="4996" y="2153" href="#P3"></use><use x="4943" y="2412" href="#P4"></use><use x="5001" y="2547" href="#P3"></use><use x="4942" y="2718" href="#P3"></use><use x="4918" y="2970" href="#P1"></use><use x="5038" y="3141" href="#P4"></use><use x="4944" y="3283" href="#P2"></use><use x="5043" y="3571" href="#P0"></use><use x="4929" y="3640" href="#P0"></use><use x="4888" y="3804" href="#P2"></use><use x="5029" y="4082" href="#P4"></use><use x="4982" y="4205" href="#P4"></use><use x="4938" y="4392" href="#P6"></use><use x="4943" y="4524" href="#P4"></use><use x="4911" y="4864" href="#P3"></use><use x="4948" y="5008" href="#P6"></use><use x="5043" y="5205" href="#P0"></use><use x="5213" y="-197" href="#P3"></use><use x="5237" y="-55" href="#P0"></use><use x="5207" y="164" href="#P1"></use><use x="5150" y="453" href="#P2"></use><use x="5108" y="492" href="#P5"></use><use x="5105" y="762" href="#P1"></use><use x="5120" y="996" href="#P0"></use><use x="5075" y="1095" href="#P0"></use><use x="5171" y="1389" href="#P5"></use><use x="5226" y="1402" href="#P6"></use><use x="5211" y="1733" href="#P5"></use><use x="5108" y="1914" href="#P6"></use><use x="5233" y="1951" href="#P4"></use><use x="5237" y="2243" href="#P0"></use><use x="5222" y="2345" href="#P3"></use><use x="5236" y="2627" href="#P4"></use><use x="5209" y="2756" href="#P2"></use><use x="5240" y="2998" href="#P6"></use><use x="5135" y="3210" href="#P3"></use><use x="5081" y="3241" href="#P3"></use><use x="5247" y="3481" href="#P3"></use><use x="5223" y="3735" href="#P1"></use><use x="5076" y="3837" href="#P4"></use><use x="5083" y="4136" href="#P0"></use><use x="5109" y="4302" href="#P2"></use><use x="5075" y="4356" href="#P4"></use><use x="5212" y="4608" href="#P3"></use><use x="5125" y="4767" href="#P4"></use><use x="5165" y="4904" href="#P2"></use><use x="5142" y="5123" href="#P5"></use></g></svg>